<?xml version="1.0" encoding="utf-8"?>
<svg version="1.1" xmlns:xlink="http://www.w3.org/1999/xlink" width="28px" height="28px" xmlns="http://www.w3.org/2000/svg">
  <g transform="matrix(1 0 0 1 -50 -815 )">
    <path d="M 64 815  C 71.84 815  78 821.16  78 829  C 78 836.84  71.84 843  64 843  C 56.16 843  50 836.84  50 829  C 50 821.16  56.16 815  64 815  Z " fill-rule="nonzero" fill="#ffffff" stroke="none" fill-opacity="0" />
    <path d="M 64 815.5  C 71.56 815.5  77.5 821.44  77.5 829  C 77.5 836.56  71.56 842.5  64 842.5  C 56.44 842.5  50.5 836.56  50.5 829  C 50.5 821.44  56.44 815.5  64 815.5  Z " stroke-width="1" stroke="#9c2b23" fill="none" />
  </g>
</svg>