<?xml version="1.0" encoding="utf-8"?>
<svg version="1.1" xmlns:xlink="http://www.w3.org/1999/xlink" width="68px" height="55px" xmlns="http://www.w3.org/2000/svg">
  <g transform="matrix(1 0 0 1 -474 -1213 )">
    <path d="M 18.427734375 15.3162470023981  C 18.9811197916667 14.7776778577138  19.2578125 14.0577537969624  19.2578125 13.1564748201439  C 19.2578125 12.2551958433253  18.9811197916667 11.5297761790568  18.427734375 10.9802158273381  C 17.8743489583333 10.4306554756195  17.1438802083333 10.1558752997602  16.236328125 10.1558752997602  C 15.2845052083333 10.1558752997602  14.443359375 10.4361510791367  13.712890625 10.9967026378897  C 12.982421875 11.5572541966427  12.6171875 12.2771782573941  12.6171875 13.1564748201439  C 12.6171875 14.0137889688249  12.982421875 14.722721822542  13.712890625 15.283273381295  C 14.443359375 15.843824940048  15.2845052083333 16.1241007194245  16.236328125 16.1241007194245  C 17.1438802083333 16.1241007194245  17.8743489583333 15.8548161470823  18.427734375 15.3162470023981  Z M 43.0810546875 31.5557553956835  C 43.6455078125 31.0721422861711  43.927734375 30.5115907274181  43.927734375 29.8741007194245  C 43.927734375 29.2585931254996  43.6455078125 28.709032773781  43.0810546875 28.2254196642686  C 42.5166015625 27.7418065547562  41.7916666666667 27.5  40.90625 27.5  C 40.30859375 27.5  39.7607421875 27.7473021582734  39.2626953125 28.2419064748201  C 38.7646484375 28.7365107913669  38.515625 29.2805755395683  38.515625 29.8741007194245  C 38.515625 30.4896083133493  38.7646484375 31.0446642685851  39.2626953125 31.5392685851319  C 39.7607421875 32.0338729016787  40.30859375 32.281175059952  40.90625 32.281175059952  C 41.7916666666667 32.281175059952  42.5166015625 32.0393685051958  43.0810546875 31.5557553956835  Z M 35.2783203125 15.3162470023981  C 35.8206380208333 14.7776778577138  36.091796875 14.0577537969624  36.091796875 13.1564748201439  C 36.091796875 12.2551958433253  35.8206380208333 11.5297761790568  35.2783203125 10.9802158273381  C 34.7360026041667 10.4306554756195  34.0110677083333 10.1558752997602  33.103515625 10.1558752997602  C 32.1516927083333 10.1558752997602  31.310546875 10.4361510791367  30.580078125 10.9967026378897  C 29.849609375 11.5572541966427  29.484375 12.2771782573941  29.484375 13.1564748201439  C 29.484375 14.0137889688249  29.849609375 14.722721822542  30.580078125 15.283273381295  C 31.310546875 15.843824940048  32.1516927083333 16.1241007194245  33.103515625 16.1241007194245  C 34.0110677083333 16.1241007194245  34.7360026041667 15.8548161470823  35.2783203125 15.3162470023981  Z M 56.3125 31.5557553956835  C 56.8880208333333 31.0721422861711  57.17578125 30.5115907274181  57.17578125 29.8741007194245  C 57.17578125 29.2585931254996  56.8880208333333 28.709032773781  56.3125 28.2254196642686  C 55.7369791666667 27.7418065547562  55.017578125 27.5  54.154296875 27.5  C 53.556640625 27.5  53.0087890625 27.7473021582734  52.5107421875 28.2419064748201  C 52.0126953125 28.7365107913669  51.763671875 29.2805755395683  51.763671875 29.8741007194245  C 51.763671875 30.4896083133493  52.0126953125 31.0446642685851  52.5107421875 31.5392685851319  C 53.0087890625 32.0338729016787  53.556640625 32.281175059952  54.154296875 32.281175059952  C 55.017578125 32.281175059952  55.7369791666667 32.0393685051958  56.3125 31.5557553956835  Z M 43.8115234375 8.1939448441247  C 46.1468098958333 10.7548960831335  47.6575520833333 13.6181055155875  48.34375 16.7835731414868  C 47.6575520833333 16.6956434852118  46.8828125 16.6516786570743  46.01953125 16.6516786570743  C 42.2786458333333 16.6516786570743  38.8365885416667 17.498001598721  35.693359375 19.1906474820144  C 32.5501302083333 20.8832933653078  30.0764973958333 23.1749600319744  28.2724609375 26.0656474820144  C 26.4684244791667 28.9563349320544  25.56640625 32.1163069544364  25.56640625 35.5455635491607  C 25.56640625 37.2601918465228  25.8209635416667 38.9308553157474  26.330078125 40.5575539568345  C 25.5553385416667 40.6235011990408  24.802734375 40.6564748201439  24.072265625 40.6564748201439  C 23.4967447916667 40.6564748201439  22.943359375 40.6399880095923  22.412109375 40.6070143884892  C 21.880859375 40.5740407673861  21.2721354166667 40.5025979216627  20.5859375 40.3926858513189  C 19.8997395833333 40.2827737809752  19.4072265625 40.2058353317346  19.1083984375 40.1618705035971  C 18.8095703125 40.1179056754596  18.2063802083333 40.0024980015987  17.298828125 39.8156474820144  C 16.3912760416667 39.6287969624301  15.837890625 39.5133892885691  15.638671875 39.4694244604317  L 7.23828125 43.6570743405276  L 9.62890625 36.468824940048  C 3.20963541666667 32.0063948840927  0 26.6207034372502  0 20.3117505995204  C 0 16.5967226219025  1.0791015625 13.1784572342126  3.2373046875 10.0569544364508  C 5.3955078125 6.93545163868905  8.3173828125 4.47891686650679  12.0029296875 2.68735011990408  C 15.6884765625 0.895783373301355  19.7115885416667 0  24.072265625 0  C 27.9680989583333 0  31.6481119791667 0.725419664268587  35.1123046875 2.17625899280575  C 38.5764973958333 3.62709832134293  41.4762369791667 5.63299360511591  43.8115234375 8.1939448441247  Z M 65.1611328125 26.5932254196643  C 67.0537109375 29.2640887290168  68 32.1602717825739  68 35.2817745803357  C 68 37.8537170263789  67.2418619791667 40.3102517985612  65.7255859375 42.6513788968825  C 64.2093098958333 44.9925059952038  62.15625 47.1193045563549  59.56640625 49.0317745803357  L 61.392578125 55  L 54.78515625 51.4058752997602  C 51.46484375 52.2192246203038  49.0520833333333 52.6258992805755  47.546875 52.6258992805755  C 43.8059895833333 52.6258992805755  40.3639322916667 51.8510191846523  37.220703125 50.3012589928058  C 34.0774739583333 48.7514988009592  31.6038411458333 46.6466826538769  29.7998046875 43.9868105515588  C 27.9957682291667 41.3269384492406  27.09375 38.4252597921663  27.09375 35.2817745803357  C 27.09375 32.1382893685052  27.9957682291667 29.2366107114309  29.7998046875 26.5767386091127  C 31.6038411458333 23.9168665067946  34.0774739583333 21.8120503597122  37.220703125 20.2622901678657  C 40.3639322916667 18.7125299760192  43.8059895833333 17.9376498800959  47.546875 17.9376498800959  C 51.1106770833333 17.9376498800959  54.4641927083333 18.7125299760192  57.607421875 20.2622901678657  C 60.7506510416667 21.8120503597122  63.2685546875 23.9223621103117  65.1611328125 26.5932254196643  Z " fill-rule="nonzero" fill="#d85f34" stroke="none" transform="matrix(1 0 0 1 474 1213 )" />
  </g>
</svg>