<?xml version="1.0" encoding="utf-8"?>
<svg version="1.1" xmlns:xlink="http://www.w3.org/1999/xlink" width="46px" height="42px" xmlns="http://www.w3.org/2000/svg">
  <g transform="matrix(1 0 0 1 -692 -60 )">
    <path d="M 45.4309895833333 34.2234375  C 45.8103298611111 34.6390625  46 35.13125  46 35.7  L 46 39.9  C 46 40.46875  45.8103298611111 40.9609375  45.4309895833333 41.3765625  C 45.0516493055556 41.7921875  44.6024305555556 42  44.0833333333333 42  L 1.91666666666667 42  C 1.39756944444444 42  0.948350694444444 41.7921875  0.569010416666667 41.3765625  C 0.189670138888889 40.9609375  0 40.46875  0 39.9  L 0 35.7  C 0 35.13125  0.189670138888889 34.6390625  0.569010416666667 34.2234375  C 0.948350694444444 33.8078125  1.39756944444444 33.6  1.91666666666667 33  L 44.0833333333333 33  C 44.6024305555556 33.6  45.0516493055556 33.8078125  45.4309895833333 34.2234375  Z M 45.4309895833333 17.4234375  C 45.8103298611111 17.8390625  46 18.33125  46 18.9  L 46 23.1  C 46 23.66875  45.8103298611111 24.1609375  45.4309895833333 24.5765625  C 45.0516493055556 24.9921875  44.6024305555556 25.2  44.0833333333333 25  L 1.91666666666667 25  C 1.39756944444444 25.2  0.948350694444444 24.9921875  0.569010416666667 24.5765625  C 0.189670138888889 24.1609375  0 23.66875  0 23.1  L 0 18.9  C 0 18.33125  0.189670138888889 17.8390625  0.569010416666667 17.4234375  C 0.948350694444444 17.0078125  1.39756944444444 16.8  1.91666666666667 17  L 44.0833333333333 17  C 44.6024305555556 16.8  45.0516493055556 17.0078125  45.4309895833333 17.4234375  Z M 45.4309895833333 0.623437500000002  C 45.8103298611111 1.0390625  46 1.53125  46 2.1  L 46 6.3  C 46 6.86875  45.8103298611111 7.3609375  45.4309895833333 7.7765625  C 45.0516493055556 8.1921875  44.6024305555556 8.4  44.0833333333333 9  L 1.91666666666667 9  C 1.39756944444444 8.4  0.948350694444444 8.1921875  0.569010416666667 7.7765625  C 0.189670138888889 7.3609375  0 6.86875  0 6.3  L 0 2.1  C 0 1.53125  0.189670138888889 1.0390625  0.569010416666667 0.623437500000002  C 0.948350694444444 0.207812499999998  1.39756944444444 0  1.91666666666667 0  L 44.0833333333333 0  C 44.6024305555556 0  45.0516493055556 0.207812499999998  45.4309895833333 0.623437500000002  Z " fill-rule="nonzero" fill="#ffffff" stroke="none" transform="matrix(1 0 0 1 692 60 )" />
  </g>
</svg>