<?xml version="1.0" encoding="utf-8"?>
<svg version="1.1" xmlns:xlink="http://www.w3.org/1999/xlink" width="42px" height="60px" xmlns="http://www.w3.org/2000/svg">
  <g transform="matrix(1 0 0 1 -32 -1244 )">
    <path d="M 41.3072916666667 23.7620192307692  C 41.7690972222222 24.21875  42 24.7596153846154  42 25.3846153846154  L 42 30  C 42 35.3125  40.2074652777778 39.9338942307692  36.6223958333333 43.8641826923077  C 33.0373263888889 47.7944711538461  28.6076388888889 50.0480769230769  23.3333333333333 50.625  L 23.3333333333333 55.3846153846154  L 32.6666666666667 55.3846153846154  C 33.2986111111111 55.3846153846154  33.8454861111111 55.6129807692308  34.3072916666667 56.0697115384615  C 34.7690972222222 56.5264423076923  35 57.0673076923077  35 57.6923076923077  C 35 58.3173076923077  34.7690972222222 58.8581730769231  34.3072916666667 59.3149038461538  C 33.8454861111111 59.7716346153846  33.2986111111111 60  32.6666666666667 60  L 9.33333333333333 60  C 8.70138888888889 60  8.15451388888889 59.7716346153846  7.69270833333333 59.3149038461538  C 7.23090277777778 58.8581730769231  7 58.3173076923077  7 57.6923076923077  C 7 57.0673076923077  7.23090277777778 56.5264423076923  7.69270833333333 56.0697115384615  C 8.15451388888889 55.6129807692308  8.70138888888889 55.3846153846154  9.33333333333333 55.3846153846154  L 18.6666666666667 55.3846153846154  L 18.6666666666667 50.625  C 13.3923611111111 50.0480769230769  8.96267361111111 47.7944711538461  5.37760416666667 43.8641826923077  C 1.79253472222222 39.9338942307692  0 35.3125  0 30  L 0 25.3846153846154  C 0 24.7596153846154  0.230902777777778 24.21875  0.692708333333333 23.7620192307692  C 1.15451388888889 23.3052884615385  1.70138888888889 23.0769230769231  2.33333333333333 23.0769230769231  C 2.96527777777778 23.0769230769231  3.51215277777778 23.3052884615385  3.97395833333333 23.7620192307692  C 4.43576388888889 24.21875  4.66666666666667 24.7596153846154  4.66666666666667 25.3846153846154  L 4.66666666666667 30  C 4.66666666666667 34.4471153846154  6.26475694444445 38.2512019230769  9.4609375 41.4122596153846  C 12.6571180555556 44.5733173076923  16.5034722222222 46.1538461538461  21 46.1538461538461  C 25.4965277777778 46.1538461538461  29.3428819444444 44.5733173076923  32.5390625 41.4122596153846  C 35.7352430555556 38.2512019230769  37.3333333333333 34.4471153846154  37.3333333333333 30  L 37.3333333333333 25.3846153846154  C 37.3333333333333 24.7596153846154  37.5642361111111 24.21875  38.0260416666667 23.7620192307692  C 38.4878472222222 23.3052884615385  39.0347222222222 23.0769230769231  39.6666666666667 23.0769230769231  C 40.2986111111111 23.0769230769231  40.8454861111111 23.3052884615385  41.3072916666667 23.7620192307692  Z M 29.2395833333333 3.38942307692307  C 31.5243055555556 5.64903846153846  32.6666666666667 8.36538461538461  32 11.5384615384615  L 32 30  C 32.6666666666667 33.1730769230769  31.5243055555556 35.8894230769231  29.2395833333333 38.1490384615385  C 26.9548611111111 40.4086538461538  24.2083333333333 41.5384615384615  21 41.5384615384615  C 17.7916666666667 41.5384615384615  15.0451388888889 40.4086538461538  12.7604166666667 38.1490384615385  C 10.4756944444444 35.8894230769231  9.33333333333333 33.1730769230769  10 30  L 10 11.5384615384615  C 9.33333333333333 8.36538461538461  10.4756944444444 5.64903846153846  12.7604166666667 3.38942307692307  C 15.0451388888889 1.1298076923077  17.7916666666667 0  21 0  C 24.2083333333333 0  26.9548611111111 1.1298076923077  29.2395833333333 3.38942307692307  Z " fill-rule="nonzero" fill="#9c2b23" stroke="none" transform="matrix(1 0 0 1 32 1244 )" />
  </g>
</svg>