<?xml version="1.0" encoding="utf-8"?>
<svg version="1.1" xmlns:xlink="http://www.w3.org/1999/xlink" width="60px" height="60px" xmlns="http://www.w3.org/2000/svg">
  <g transform="matrix(1 0 0 1 -573 -1244 )">
    <path d="M 44.140625 35.09765625  C 44.453125 35.7096354166667  44.5052083333333 36.3411458333333  44.296875 36.9921875  C 43.3333333333333 40.1432291666667  41.5364583333333 42.6822916666667  38.90625 44.609375  C 36.2760416666667 46.5364583333333  33.3072916666667 47.5  30 47.5  C 26.6927083333333 47.5  23.7239583333333 46.5364583333333  21.09375 44.609375  C 18.4635416666667 42.6822916666667  16.6666666666667 40.1432291666667  15.703125 36.9921875  C 15.4947916666667 36.3411458333333  15.546875 35.7096354166667  15.859375 35.09765625  C 16.171875 34.4856770833333  16.6666666666667 34.0755208333333  17.34375 33.8671875  C 17.9947916666667 33.6588541666667  18.6263020833333 33.7109375  19.23828125 34.0234375  C 19.8502604166667 34.3359375  20.2604166666667 34.8307291666667  20.46875 35.5078125  C 21.1197916666667 37.5911458333333  22.32421875 39.27734375  24.08203125 40.56640625  C 25.83984375 41.85546875  27.8125 42.5  30 42.5  C 32.1875 42.5  34.16015625 41.85546875  35.91796875 40.56640625  C 37.67578125 39.27734375  38.8802083333333 37.5911458333333  39.53125 35.5078125  C 39.7395833333333 34.8307291666667  40.15625 34.3359375  40.78125 34.0234375  C 41.40625 33.7109375  42.0442708333333 33.6588541666667  42.6953125 33.8671875  C 43.3463541666667 34.0755208333333  43.828125 34.4856770833333  44.140625 35.09765625  Z M 23.53515625 16.46484375  C 24.51171875 17.44140625  25 18.6197916666667  25 20  C 25 21.3802083333333  24.51171875 22.55859375  23.53515625 23.53515625  C 22.55859375 24.51171875  21.3802083333333 25  20 25  C 18.6197916666667 25  17.44140625 24.51171875  16.46484375 23.53515625  C 15.48828125 22.55859375  15 21.3802083333333  15 20  C 15 18.6197916666667  15.48828125 17.44140625  16.46484375 16.46484375  C 17.44140625 15.48828125  18.6197916666667 15  20 15  C 21.3802083333333 15  22.55859375 15.48828125  23.53515625 16.46484375  Z M 43.53515625 16.46484375  C 44.51171875 17.44140625  45 18.6197916666667  45 20  C 45 21.3802083333333  44.51171875 22.55859375  43.53515625 23.53515625  C 42.55859375 24.51171875  41.3802083333333 25  40 25  C 38.6197916666667 25  37.44140625 24.51171875  36.46484375 23.53515625  C 35.48828125 22.55859375  35 21.3802083333333  35 20  C 35 18.6197916666667  35.48828125 17.44140625  36.46484375 16.46484375  C 37.44140625 15.48828125  38.6197916666667 15  40 15  C 41.3802083333333 15  42.55859375 15.48828125  43.53515625 16.46484375  Z M 53.0078125 39.70703125  C 54.3359375 36.62109375  55 33.3854166666667  55 30  C 55 26.6145833333333  54.3359375 23.37890625  53.0078125 20.29296875  C 51.6796875 17.20703125  49.90234375 14.55078125  47.67578125 12.32421875  C 45.44921875 10.09765625  42.79296875 8.3203125  39.70703125 6.9921875  C 36.62109375 5.6640625  33.3854166666667 5  30 5  C 26.6145833333333 5  23.37890625 5.6640625  20.29296875 6.9921875  C 17.20703125 8.3203125  14.55078125 10.09765625  12.32421875 12.32421875  C 10.09765625 14.55078125  8.3203125 17.20703125  6.9921875 20.29296875  C 5.6640625 23.37890625  5 26.6145833333333  5 30  C 5 33.3854166666667  5.6640625 36.62109375  6.9921875 39.70703125  C 8.3203125 42.79296875  10.09765625 45.44921875  12.32421875 47.67578125  C 14.55078125 49.90234375  17.20703125 51.6796875  20.29296875 53.0078125  C 23.37890625 54.3359375  26.6145833333333 55  30 55  C 33.3854166666667 55  36.62109375 54.3359375  39.70703125 53.0078125  C 42.79296875 51.6796875  45.44921875 49.90234375  47.67578125 47.67578125  C 49.90234375 45.44921875  51.6796875 42.79296875  53.0078125 39.70703125  Z M 55.9765625 14.94140625  C 58.6588541666667 19.5377604166667  60 24.5572916666667  60 30  C 60 35.4427083333333  58.6588541666667 40.4622395833333  55.9765625 45.05859375  C 53.2942708333333 49.6549479166667  49.6549479166667 53.2942708333333  45.05859375 55.9765625  C 40.4622395833333 58.6588541666667  35.4427083333333 60  30 60  C 24.5572916666667 60  19.5377604166667 58.6588541666667  14.94140625 55.9765625  C 10.3450520833333 53.2942708333333  6.70572916666667 49.6549479166667  4.0234375 45.05859375  C 1.34114583333333 40.4622395833333  0 35.4427083333333  0 30  C 0 24.5572916666667  1.34114583333333 19.5377604166667  4.0234375 14.94140625  C 6.70572916666667 10.3450520833333  10.3450520833333 6.70572916666666  14.94140625 4.0234375  C 19.5377604166667 1.34114583333333  24.5572916666667 0  30 0  C 35.4427083333333 0  40.4622395833333 1.34114583333333  45.05859375 4.0234375  C 49.6549479166667 6.70572916666666  53.2942708333333 10.3450520833333  55.9765625 14.94140625  Z " fill-rule="nonzero" fill="#9c2b23" stroke="none" transform="matrix(1 0 0 1 573 1244 )" />
  </g>
</svg>