<?xml version="1.0" encoding="utf-8"?>
<svg version="1.1" xmlns:xlink="http://www.w3.org/1999/xlink" width="60px" height="60px" xmlns="http://www.w3.org/2000/svg">
  <g transform="matrix(1 0 0 1 -657 -1244 )">
    <path d="M 46.7578125 34.2578125  C 47.2526041666667 33.7630208333333  47.5 33.1770833333333  47.5 32.5  L 47.5 27.5  C 47.5 26.8229166666667  47.2526041666667 26.2369791666667  46.7578125 25.7421875  C 46.2630208333333 25.2473958333333  45.6770833333333 25  45 25  L 35 25  L 35 15  C 35 14.3229166666667  34.7526041666667 13.7369791666667  34.2578125 13.2421875  C 33.7630208333333 12.7473958333333  33.1770833333333 12.5  32.5 12.5  L 27.5 12.5  C 26.8229166666667 12.5  26.2369791666667 12.7473958333333  25.7421875 13.2421875  C 25.2473958333333 13.7369791666667  25 14.3229166666667  25 15  L 25 25  L 15 25  C 14.3229166666667 25  13.7369791666667 25.2473958333333  13.2421875 25.7421875  C 12.7473958333333 26.2369791666667  12.5 26.8229166666667  12.5 27.5  L 12.5 32.5  C 12.5 33.1770833333333  12.7473958333333 33.7630208333333  13.2421875 34.2578125  C 13.7369791666667 34.7526041666667  14.3229166666667 35  15 35  L 25 35  L 25 45  C 25 45.6770833333333  25.2473958333333 46.2630208333333  25.7421875 46.7578125  C 26.2369791666667 47.2526041666667  26.8229166666667 47.5  27.5 47.5  L 32.5 47.5  C 33.1770833333333 47.5  33.7630208333333 47.2526041666667  34.2578125 46.7578125  C 34.7526041666667 46.2630208333333  35 45.6770833333333  35 45  L 35 35  L 45 35  C 45.6770833333333 35  46.2630208333333 34.7526041666667  46.7578125 34.2578125  Z M 55.9765625 14.94140625  C 58.6588541666667 19.5377604166667  60 24.5572916666667  60 30  C 60 35.4427083333333  58.6588541666667 40.4622395833333  55.9765625 45.05859375  C 53.2942708333333 49.6549479166667  49.6549479166667 53.2942708333333  45.05859375 55.9765625  C 40.4622395833333 58.6588541666667  35.4427083333333 60  30 60  C 24.5572916666667 60  19.5377604166667 58.6588541666667  14.94140625 55.9765625  C 10.3450520833333 53.2942708333333  6.70572916666667 49.6549479166667  4.0234375 45.05859375  C 1.34114583333333 40.4622395833333  0 35.4427083333333  0 30  C 0 24.5572916666667  1.34114583333333 19.5377604166667  4.0234375 14.94140625  C 6.70572916666667 10.3450520833333  10.3450520833333 6.70572916666666  14.94140625 4.0234375  C 19.5377604166667 1.34114583333333  24.5572916666667 0  30 0  C 35.4427083333333 0  40.4622395833333 1.34114583333333  45.05859375 4.0234375  C 49.6549479166667 6.70572916666666  53.2942708333333 10.3450520833333  55.9765625 14.94140625  Z " fill-rule="nonzero" fill="#9c2b23" stroke="none" transform="matrix(1 0 0 1 657 1244 )" />
  </g>
</svg>