<?xml version="1.0" encoding="utf-8"?>
<svg version="1.1" xmlns:xlink="http://www.w3.org/1999/xlink" width="50px" height="55px" xmlns="http://www.w3.org/2000/svg">
  <g transform="matrix(1 0 0 1 -623 -1213 )">
    <path d="M 0 39.0401785714286  C 0 33.4133184523809  2.39179954441913 28.6458333333333  7.1753986332574 24.7377232142857  C 7.02353834472286 24.3489583333333  6.94760820045558 23.8169642857143  6.94760820045558 23.1417410714286  C 6.94760820045558 22.7325148809524  7.05201214882308 22.231212797619  7.26082004555809 21.6378348214286  C 7.46962794229309 21.0444568452381  7.69741837509491 20.5840773809524  7.94419134396355 20.2566964285714  C 7.92520880789674 19.8065476190476  7.99639331814731 19.2643229166667  8.15774487471526 18.6300223214286  C 8.31909643128322 17.9957217261905  8.53264996203493 17.5558035714286  8.79840546697039 17.3102678571429  C 8.79840546697039 14.4661458333333  9.67634776006074 11.5146019345238  11.4322323462415 8.45563616071429  C 13.1881169324222 5.39667038690476  15.2524677296887 3.25334821428571  17.625284738041 2.02566964285714  C 20.2638572513288 0.675223214285713  23.3390280941534 0  26.8507972665148 0  C 29.3754745634017 0  31.9001518602885 0.562686011904768  34.4248291571754 1.68805803571429  C 35.3549734244495 2.11774553571429  36.2091875474563 2.60881696428571  36.9874715261959 3.16127232142857  C 37.7657555049355 3.71372767857143  38.4396355353075 4.28664434523809  39.0091116173121 4.88002232142857  C 39.5785876993166 5.47340029761904  40.1006074411541 6.16908482142857  40.5751708428246 6.96707589285714  C 41.0497342444951 7.76506696428571  41.4483675018983 8.52213541666666  41.7710706150342 9.23828125  C 42.0937737281701 9.95442708333333  42.4022399392559 10.8189174107143  42.6964692482916 11.8317522321429  C 42.9906985573273 12.8445870535714  43.2327258921792 13.7602306547619  43.4225512528474 14.5786830357143  C 43.6123766135156 15.3971354166667  43.8211845102506 16.3997395833333  44.0489749430524 17.5864955357143  L 44.0774487471526 17.7399553571429  C 45.1214882308276 19.438244047619  45.6435079726651 20.9728422619048  45.6435079726651 22.34375  C 45.6435079726651 22.6302083333333  45.5580865603645 23.0394345238095  45.3872437357631 23.5714285714286  C 45.2164009111617 24.1034226190476  45.130979498861 24.4921875  45.130979498861 24.7377232142857  C 45.130979498861 24.7581845238095  45.1452164009112 24.7939918154762  45.1736902050114 24.8451450892857  C 45.2021640091116 24.8962983630952  45.2353834472285 24.9474516369048  45.2733485193622 24.9986049107143  C 45.3113135914958 25.0497581845238  45.3302961275626 25.0855654761905  45.3302961275626 25.1060267857143  C 46.7919514047077 27.4386160714286  47.9356492027335 29.6330915178571  48.7613895216401 31.689453125  C 49.5871298405467 33.7458147321429  50 35.87890625  50 38.0887276785714  C 50 38.9685639880952  49.8149202733485 39.9916294642857  49.4447608200456 41.1579241071429  C 49.0746013667426 42.32421875  48.5478359908884 42.9073660714286  47.8644646924829 42.9073660714286  C 47.6936218678815 42.9073660714286  47.5085421412301 42.8306361607143  47.3092255125285 42.6771763392857  C 47.1099088838269 42.5237165178571  46.9295747911921 42.3446800595238  46.7682232346241 42.1400669642857  C 46.6068716780562 41.9354538690476  46.4265375854214 41.6694568452381  46.2272209567198 41.3420758928571  C 46.0279043280182 41.0146949404762  45.8760440394837 40.7435825892857  45.7716400911162 40.5287388392857  C 45.6672361427487 40.3138950892857  45.5391040242977 40.0478980654762  45.3872437357631 39.7307477678571  C 45.2353834472285 39.4135974702381  45.1499620349279 39.2345610119048  45.130979498861 39.1936383928571  C 45.1119969627942 39.1731770833333  45.083523158694 39.1629464285714  45.0455580865604 39.1629464285714  L 44.9031890660592 39.2857142857143  C 43.7832194381169 42.4367559523809  42.5303720577069 44.7181919642857  41.1446469248292 46.1300223214286  C 41.5242976461655 46.5392485119048  42.1080106302202 46.9331287202381  42.8957858769932 47.3116629464286  C 43.6835611237661 47.6901971726191  44.3384586180714 48.1147693452381  44.8604783599089 48.5853794642857  C 45.3824981017464 49.0559895833333  45.7194381169324 49.7209821428571  45.871298405467 50.5803571428571  C 45.8333333333333 50.6622023809524  45.7953682611997 50.8258928571429  45.7574031890661 51.0714285714286  C 45.7194381169324 51.3169642857143  45.6529992406986 51.5011160714286  45.5580865603645 51.6238839285714  C 44.3432042520881 53.608630952381  41.4768413059985 54.6010044642857  36.9589977220957 54.6010044642857  C 35.9529233105543 54.6010044642857  34.9041381928626 54.5089285714286  33.8126423690205 54.3247767857143  C 32.7211465451784 54.140625  31.7910022779043 53.9360119047619  31.0222095671982 53.7109375  C 30.253416856492 53.4858630952381  29.2615793470008 53.178943452381  28.0466970387244 52.7901785714286  C 27.7619589977221 52.6878720238095  27.5436598329537 52.6162574404762  27.3917995444191 52.5753348214286  C 27.1260440394837 52.4934895833333  26.6894457099469 52.4474516369048  26.0820045558087 52.4372209821429  C 25.4745634016705 52.426990327381  25.0949126803341 52.4116443452381  24.9430523917995 52.3911830357143  C 24.16476841306 53.3119419642857  22.9546317388003 53.9769345238095  21.3126423690205 54.3861607142857  C 19.6706529992407 54.7953869047619  18.0713743356112 55  16.5148063781321 55  C 15.8504176157935 55  15.1955201214882 54.9846540178571  14.5501138952164 54.9539620535714  C 13.9047076689446 54.9232700892857  13.0220197418375 54.8311941964286  11.9020501138952 54.677734375  C 10.7820804859529 54.5242745535714  9.82346241457859 54.3145461309524  9.02619589977221 54.0485491071429  C 8.22892938496583 53.7825520833333  7.52182991647684 53.3733258928571  6.90489749430524 52.8208705357143  C 6.28796507213364 52.2684151785714  5.97949886104784 51.6136532738095  5.97949886104784 50.8565848214286  C 5.97949886104784 50.0381324404762  6.07441154138193 49.4294084821429  6.26423690205011 49.0304129464286  C 6.4540622627183 48.6314174107143  6.84320425208808 48.1352306547619  7.43166287015945 47.5418526785714  C 7.64047076689446 47.5009300595238  8.02486712224753 47.3679315476191  8.58485193621868 47.1428571428571  C 9.14483675018983 46.9177827380952  9.61465451784358 46.7950148809524  9.99430523917995 46.7745535714286  C 10.0702353834472 46.7745535714286  10.203113135915 46.7540922619048  10.3929384965831 46.7131696428571  C 10.4309035687168 46.6722470238095  10.4498861047836 46.6313244047619  10.4498861047836 46.5904017857143  L 10.3929384965831 46.4983258928571  C 9.48177676537586 46.2732514880952  8.45671981776765 45.1939174107143  7.31776765375854 43.2603236607143  C 6.17881548974943 41.3267299107143  5.48595292331055 39.7256324404762  5.23917995444191 38.45703125  L 5.09681093394077 38.3649553571429  C 5.0208807896735 38.3649553571429  4.90698557327259 38.5695684523809  4.75512528473804 38.9787946428571  C 4.41343963553531 39.8177083333333  3.8961655277145 40.5798921130952  3.20330296127563 41.2653459821429  C 2.51044039483675 41.9507998511905  1.77486712224753 42.3344494047619  0.996583143507973 42.4162946428571  L 0.968109339407745 42.4162946428571  C 0.892179195140471 42.4162946428571  0.835231586940015 42.3702566964286  0.797266514806378 42.2781808035714  C 0.759301442672741 42.1861049107143  0.711845102505695 42.1298363095238  0.654897494305239 42.109375  C 0.218299164768413 41.0044642857143  0 39.9813988095238  0 39.0401785714286  Z " fill-rule="nonzero" fill="#d85f34" stroke="none" transform="matrix(1 0 0 1 623 1213 )" />
  </g>
</svg>