<?xml version="1.0" encoding="utf-8"?>
<svg version="1.1" xmlns:xlink="http://www.w3.org/1999/xlink" width="50px" height="50px" xmlns="http://www.w3.org/2000/svg">
  <g transform="matrix(1 0 0 1 -650 0 )">
    <path d="M 675 4  C 686.76 4  696 13.24  696 25  C 696 36.76  686.76 46  675 46  C 663.24 46  654 36.76  654 25  C 654 13.24  663.24 4  675 4  Z " fill-rule="nonzero" fill="#ffa47d" stroke="none" />
    <path d="M 675 2.5  C 687.6 2.5  697.5 12.4  697.5 25  C 697.5 37.6  687.6 47.5  675 47.5  C 662.4 47.5  652.5 37.6  652.5 25  C 652.5 12.4  662.4 2.5  675 2.5  Z " stroke-width="5" stroke="#f5917d" fill="none" />
  </g>
</svg>