<?xml version="1.0" encoding="utf-8"?>
<svg version="1.1" xmlns:xlink="http://www.w3.org/1999/xlink" width="47px" height="40px" xmlns="http://www.w3.org/2000/svg">
  <defs>
    <mask fill="white" id="clip76">
      <path d="M 24.6540178571429 39.53125  C 24.3392857142857 39.84375  23.9546130952381 40  23.5 40  C 23.0453869047619 40  22.6607142857143 39.84375  22.3459821428571 39.53125  L 5.97991071428571 23.8541666666667  C 5.80505952380952 23.7152777777778  5.56463913690476 23.4895833333333  5.25864955357143 23.1770833333333  C 4.9526599702381 22.8645833333333  4.46744791666667 22.2960069444444  3.80301339285714 21.4713541666667  C 3.13857886904762 20.6467013888889  2.54408482142857 19.8003472222222  2.01953125 18.9322916666667  C 1.49497767857143 18.0642361111111  1.02725074404762 17.0138888888889  0.616350446428571 15.78125  C 0.205450148809524 14.5486111111111  0 13.3506944444444  0 12.1875  C 0 8.36805555555555  1.11030505952381 5.38194444444444  3.33091517857143 3.22916666666667  C 5.55152529761905 1.07638888888889  8.62016369047619 0  12.5368303571429 0  C 13.6209077380952 0  14.7268415178571 0.186631944444442  15.8546316964286 0.559895833333335  C 16.982421875 0.933159722222219  18.0315290178571 1.43663194444444  19.001953125 2.0703125  C 19.9723772321429 2.70399305555555  20.8072916666667 3.29861111111111  21.5066964285714 3.85416666666667  C 22.2061011904762 4.40972222222222  22.8705357142857 5  23.5 5.625  C 24.1294642857143 5  24.7938988095238 4.40972222222222  25.4933035714286 3.85416666666667  C 26.1927083333333 3.29861111111111  27.0276227678571 2.70399305555555  27.998046875 2.0703125  C 28.9684709821429 1.43663194444444  30.017578125 0.933159722222219  31.1453683035714 0.559895833333335  C 32.2731584821429 0.186631944444442  33.3790922619048 0  34.4631696428571 0  C 38.3798363095238 0  41.448474702381 1.07638888888889  43.6690848214286 3.22916666666667  C 45.8896949404762 5.38194444444444  47 8.36805555555555  47 12.1875  C 47 16.0243055555556  44.9979538690476 19.9305555555556  40.9938616071429 23.90625  L 24.6540178571429 39.53125  Z " fill-rule="evenodd" />
    </mask>
  </defs>
  <g transform="matrix(1 0 0 1 -683 -906 )">
    <path d="M 24.6540178571429 39.53125  C 24.3392857142857 39.84375  23.9546130952381 40  23.5 40  C 23.0453869047619 40  22.6607142857143 39.84375  22.3459821428571 39.53125  L 5.97991071428571 23.8541666666667  C 5.80505952380952 23.7152777777778  5.56463913690476 23.4895833333333  5.25864955357143 23.1770833333333  C 4.9526599702381 22.8645833333333  4.46744791666667 22.2960069444444  3.80301339285714 21.4713541666667  C 3.13857886904762 20.6467013888889  2.54408482142857 19.8003472222222  2.01953125 18.9322916666667  C 1.49497767857143 18.0642361111111  1.02725074404762 17.0138888888889  0.616350446428571 15.78125  C 0.205450148809524 14.5486111111111  0 13.3506944444444  0 12.1875  C 0 8.36805555555555  1.11030505952381 5.38194444444444  3.33091517857143 3.22916666666667  C 5.55152529761905 1.07638888888889  8.62016369047619 0  12.5368303571429 0  C 13.6209077380952 0  14.7268415178571 0.186631944444442  15.8546316964286 0.559895833333335  C 16.982421875 0.933159722222219  18.0315290178571 1.43663194444444  19.001953125 2.0703125  C 19.9723772321429 2.70399305555555  20.8072916666667 3.29861111111111  21.5066964285714 3.85416666666667  C 22.2061011904762 4.40972222222222  22.8705357142857 5  23.5 5.625  C 24.1294642857143 5  24.7938988095238 4.40972222222222  25.4933035714286 3.85416666666667  C 26.1927083333333 3.29861111111111  27.0276227678571 2.70399305555555  27.998046875 2.0703125  C 28.9684709821429 1.43663194444444  30.017578125 0.933159722222219  31.1453683035714 0.559895833333335  C 32.2731584821429 0.186631944444442  33.3790922619048 0  34.4631696428571 0  C 38.3798363095238 0  41.448474702381 1.07638888888889  43.6690848214286 3.22916666666667  C 45.8896949404762 5.38194444444444  47 8.36805555555555  47 12.1875  C 47 16.0243055555556  44.9979538690476 19.9305555555556  40.9938616071429 23.90625  L 24.6540178571429 39.53125  Z " fill-rule="nonzero" fill="#ffffff" stroke="none" transform="matrix(1 0 0 1 683 906 )" />
    <path d="M 24.6540178571429 39.53125  C 24.3392857142857 39.84375  23.9546130952381 40  23.5 40  C 23.0453869047619 40  22.6607142857143 39.84375  22.3459821428571 39.53125  L 5.97991071428571 23.8541666666667  C 5.80505952380952 23.7152777777778  5.56463913690476 23.4895833333333  5.25864955357143 23.1770833333333  C 4.9526599702381 22.8645833333333  4.46744791666667 22.2960069444444  3.80301339285714 21.4713541666667  C 3.13857886904762 20.6467013888889  2.54408482142857 19.8003472222222  2.01953125 18.9322916666667  C 1.49497767857143 18.0642361111111  1.02725074404762 17.0138888888889  0.616350446428571 15.78125  C 0.205450148809524 14.5486111111111  0 13.3506944444444  0 12.1875  C 0 8.36805555555555  1.11030505952381 5.38194444444444  3.33091517857143 3.22916666666667  C 5.55152529761905 1.07638888888889  8.62016369047619 0  12.5368303571429 0  C 13.6209077380952 0  14.7268415178571 0.186631944444442  15.8546316964286 0.559895833333335  C 16.982421875 0.933159722222219  18.0315290178571 1.43663194444444  19.001953125 2.0703125  C 19.9723772321429 2.70399305555555  20.8072916666667 3.29861111111111  21.5066964285714 3.85416666666667  C 22.2061011904762 4.40972222222222  22.8705357142857 5  23.5 5.625  C 24.1294642857143 5  24.7938988095238 4.40972222222222  25.4933035714286 3.85416666666667  C 26.1927083333333 3.29861111111111  27.0276227678571 2.70399305555555  27.998046875 2.0703125  C 28.9684709821429 1.43663194444444  30.017578125 0.933159722222219  31.1453683035714 0.559895833333335  C 32.2731584821429 0.186631944444442  33.3790922619048 0  34.4631696428571 0  C 38.3798363095238 0  41.448474702381 1.07638888888889  43.6690848214286 3.22916666666667  C 45.8896949404762 5.38194444444444  47 8.36805555555555  47 12.1875  C 47 16.0243055555556  44.9979538690476 19.9305555555556  40.9938616071429 23.90625  L 24.6540178571429 39.53125  Z " stroke-width="2" stroke="#9c2b23" fill="none" transform="matrix(1 0 0 1 683 906 )" mask="url(#clip76)" />
  </g>
</svg>