<?xml version="1.0" encoding="utf-8"?>
<svg version="1.1" xmlns:xlink="http://www.w3.org/1999/xlink" width="75px" height="69px" xmlns="http://www.w3.org/2000/svg">
  <g transform="matrix(1 0 0 1 -674 -54 )">
    <path d="M 74.072265625 56.22421875  C 74.6907552083333 56.90703125  75 57.715625  75 58.65  L 75 65.55  C 75 66.484375  74.6907552083333 67.29296875  74.072265625 67.97578125  C 73.4537760416667 68.65859375  72.7213541666667 69  71.875 69  L 3.125 69  C 2.27864583333333 69  1.54622395833333 68.65859375  0.927734375 67.97578125  C 0.309244791666667 67.29296875  0 66.484375  0 65.55  L 0 58.65  C 0 57.715625  0.309244791666667 56.90703125  0.927734375 56.22421875  C 1.54622395833333 55.54140625  2.27864583333333 55.2  3.125 55  L 71.875 55  C 72.7213541666667 55.2  73.4537760416667 55.54140625  74.072265625 56.22421875  Z M 74.072265625 28.62421875  C 74.6907552083333 29.30703125  75 30.115625  75 31.05  L 75 37.95  C 75 38.884375  74.6907552083333 39.69296875  74.072265625 40.37578125  C 73.4537760416667 41.05859375  72.7213541666667 41.4  71.875 41  L 3.125 41  C 2.27864583333333 41.4  1.54622395833333 41.05859375  0.927734375 40.37578125  C 0.309244791666667 39.69296875  0 38.884375  0 37.95  L 0 31.05  C 0 30.115625  0.309244791666667 29.30703125  0.927734375 28.62421875  C 1.54622395833333 27.94140625  2.27864583333333 27.6  3.125 28  L 71.875 28  C 72.7213541666667 27.6  73.4537760416667 27.94140625  74.072265625 28.62421875  Z M 74.072265625 1.02421875  C 74.6907552083333 1.70703124999999  75 2.51562499999999  75 3.45  L 75 10.35  C 75 11.284375  74.6907552083333 12.09296875  74.072265625 12.77578125  C 73.4537760416667 13.45859375  72.7213541666667 13.8  71.875 14  L 3.125 14  C 2.27864583333333 13.8  1.54622395833333 13.45859375  0.927734375 12.77578125  C 0.309244791666667 12.09296875  0 11.284375  0 10.35  L 0 3.45  C 0 2.51562499999999  0.309244791666667 1.70703124999999  0.927734375 1.02421875  C 1.54622395833333 0.341406249999996  2.27864583333333 0  3.125 0  L 71.875 0  C 72.7213541666667 0  73.4537760416667 0.341406249999996  74.072265625 1.02421875  Z " fill-rule="nonzero" fill="#ffffff" stroke="none" transform="matrix(1 0 0 1 674 54 )" />
  </g>
</svg>