<?xml version="1.0" encoding="utf-8"?>
<svg version="1.1" xmlns:xlink="http://www.w3.org/1999/xlink" width="50px" height="43px" xmlns="http://www.w3.org/2000/svg">
  <g transform="matrix(1 0 0 1 -525 -27 )">
    <path d="M 26.2276785714286 42.49609375  C 25.8928571428571 42.83203125  25.483630952381 43  25 43  C 24.5163690476191 43  24.1071428571429 42.83203125  23.7723214285714 42.49609375  L 6.36160714285714 25.6432291666667  C 6.17559523809524 25.4939236111111  5.91982886904762 25.2513020833333  5.59430803571429 24.9153645833333  C 5.26878720238095 24.5794270833333  4.75260416666667 23.9682074652778  4.04575892857143 23.0817057291667  C 3.33891369047619 22.1952039930556  2.70647321428571 21.2853732638889  2.1484375 20.3522135416667  C 1.59040178571429 19.4190538194444  1.09281994047619 18.2899305555556  0.655691964285714 16.96484375  C 0.218563988095238 15.6397569444444  0 14.3519965277778  0 13.1015625  C 0 8.99565972222222  1.1811755952381 5.78559027777778  3.54352678571429 3.47135416666667  C 5.90587797619048 1.15711805555555  9.1703869047619 0  13.3370535714286 0  C 14.4903273809524 0  15.6668526785714 0.200629340277775  16.8666294642857 0.601888020833335  C 18.06640625 1.00314670138889  19.1824776785714 1.54437934027778  20.21484375 2.2255859375  C 21.2472098214286 2.90679253472222  22.1354166666667 3.54600694444444  22.8794642857143 4.14322916666667  C 23.6235119047619 4.74045138888888  24.3303571428571 5.375  25 6.046875  C 25.6696428571429 5.375  26.3764880952381 4.74045138888888  27.1205357142857 4.14322916666667  C 27.8645833333333 3.54600694444444  28.7527901785714 2.90679253472222  29.78515625 2.2255859375  C 30.8175223214286 1.54437934027778  31.93359375 1.00314670138889  33.1333705357143 0.601888020833335  C 34.3331473214286 0.200629340277775  35.5096726190476 0  36.6629464285714 0  C 40.8296130952381 0  44.0941220238095 1.15711805555555  46.4564732142857 3.47135416666667  C 48.8188244047619 5.78559027777778  50 8.99565972222222  50 13.1015625  C 50 17.2261284722222  47.8701636904762 21.4253472222222  43.6104910714286 25.69921875  L 26.2276785714286 42.49609375  Z " fill-rule="nonzero" fill="#a1352e" stroke="none" transform="matrix(1 0 0 1 525 27 )" />
  </g>
</svg>