<?xml version="1.0" encoding="utf-8"?>
<svg version="1.1" xmlns:xlink="http://www.w3.org/1999/xlink" width="40px" height="33px" xmlns="http://www.w3.org/2000/svg">
  <g transform="matrix(1 0 0 1 -430 -28 )">
    <path d="M 20.9821428571429 32.61328125  C 20.7142857142857 32.87109375  20.3869047619048 33  20 33  C 19.6130952380952 33  19.2857142857143 32.87109375  19.0178571428571 32.61328125  L 5.08928571428571 19.6796875  C 4.94047619047619 19.5651041666667  4.7358630952381 19.37890625  4.47544642857143 19.12109375  C 4.21502976190476 18.86328125  3.80208333333333 18.3942057291667  3.23660714285714 17.7138671875  C 2.67113095238095 17.0335286458333  2.16517857142857 16.3352864583333  1.71875 15.619140625  C 1.27232142857143 14.9029947916667  0.874255952380952 14.0364583333333  0.524553571428571 13.01953125  C 0.17485119047619 12.0026041666667  0 11.0143229166667  0 10.0546875  C 0 6.90364583333333  0.944940476190476 4.44010416666666  2.83482142857143 2.6640625  C 4.72470238095238 0.888020833333333  7.33630952380952 0  10.6696428571429 0  C 11.5922619047619 0  12.5334821428571 0.153971354166665  13.4933035714286 0.461914062500001  C 14.453125 0.76985677083333  15.3459821428571 1.18522135416666  16.171875 1.7080078125  C 16.9977678571429 2.23079427083333  17.7083333333333 2.72135416666666  18.3035714285714 3.1796875  C 18.8988095238095 3.63802083333333  19.4642857142857 4.125  20 4.640625  C 20.5357142857143 4.125  21.1011904761905 3.63802083333333  21.6964285714286 3.1796875  C 22.2916666666667 2.72135416666666  23.0022321428571 2.23079427083333  23.828125 1.7080078125  C 24.6540178571429 1.18522135416666  25.546875 0.76985677083333  26.5066964285714 0.461914062500001  C 27.4665178571429 0.153971354166665  28.4077380952381 0  29.3303571428571 0  C 32.6636904761905 0  35.2752976190476 0.888020833333333  37.1651785714286 2.6640625  C 39.0550595238095 4.44010416666666  40 6.90364583333333  40 10.0546875  C 40 13.2200520833333  38.296130952381 16.4427083333333  34.8883928571429 19.72265625  L 20.9821428571429 32.61328125  Z " fill-rule="nonzero" fill="#fffbfb" stroke="none" transform="matrix(1 0 0 1 430 28 )" />
  </g>
</svg>